GRF
version=1
nRows=12
nColumns=19
inDegrees=no
endheader
time	ground_force_vx	ground_force_vy	ground_force_vz	ground_force_px	ground_force_py	ground_force_pz	ground_torque_x	ground_torque_y	ground_torque_z	1_ground_force_vx	1_ground_force_vy	1_ground_force_vz	1_ground_force_px	1_ground_force_py	1_ground_force_pz	1_ground_torque_x	1_ground_torque_y	1_ground_torque_z
      5.25000000	    -55.59076103	    402.76796526	     20.23777527	      0.19272175	     -0.00000000	     -0.09174646	      0.00000000	      0.13778414	     -0.00000000	     41.28628586	    322.38457772	     -9.48747623	     -0.25381931	      0.00000000	     -0.02034857	      0.00000000	      1.53715848	     -0.00000000
      5.25100000	    -55.59276551	    402.83514615	     20.24874593	      0.19267667	     -0.00000000	     -0.09178408	      0.00000000	      0.13422027	     -0.00000000	     41.27577120	    322.55944891	     -9.41571392	     -0.25378158	      0.00000000	     -0.02052501	      0.00000000	      1.53531224	     -0.00000000
      5.25200000	    -55.59346809	    402.89506620	     20.25668196	      0.19263234	     -0.00000000	     -0.09181978	      0.00000000	      0.13076127	     -0.00000000	     41.26592605	    322.72472074	     -9.34374184	     -0.25374537	      0.00000000	     -0.02070013	      0.00000000	      1.53371922	     -0.00000000
      5.25300000	    -55.59281248	    402.94740513	     20.26160703	      0.19258878	     -0.00000000	     -0.09185352	      0.00000000	      0.12741962	     -0.00000000	     41.25678317	    322.88026314	     -9.27158539	     -0.25371066	      0.00000000	     -0.02087386	      0.00000000	      1.53238093	     -0.00000000
      5.25400000	    -55.59074175	    402.99184781	     20.26354947	      0.19254602	     -0.00000000	     -0.09188528	      0.00000000	      0.12420766	     -0.00000000	     41.24837739	    323.02598169	     -9.19927259	     -0.25367744	      0.00000000	     -0.02104615	      0.00000000	      1.53129631	     -0.00000000
      5.25500000	    -55.58719888	    403.02808629	     20.26254222	      0.19250410	     -0.00000000	     -0.09191504	      0.00000000	      0.12113742	     -0.00000000	     41.24074484	    323.16181649	     -9.12683379	     -0.25364571	      0.00000000	     -0.02121694	      0.00000000	      1.53046175	     -0.00000000
      5.25600000	    -55.58212749	    403.05582175	     20.25862267	      0.19246303	     -0.00000000	     -0.09194274	      0.00000000	      0.11822061	     -0.00000000	     41.23392210	    323.28774089	     -9.05430155	     -0.25361544	      0.00000000	     -0.02138615	      0.00000000	      1.52987111	     -0.00000000
      5.25700000	    -55.57547246	    403.07476643	     20.25183254	      0.19242285	     -0.00000000	     -0.09196837	      0.00000000	      0.11546851	     -0.00000000	     41.22794547	    323.40376011	     -8.98171038	     -0.25358663	      0.00000000	     -0.02155372	      0.00000000	      1.52951583	     -0.00000000
      5.25800000	    -55.56718055	    403.08464556	     20.24221777	      0.19238356	     -0.00000000	     -0.09199189	      0.00000000	      0.11289189	     -0.00000000	     41.22285015	    323.50990980	     -8.90909655	     -0.25355925	      0.00000000	     -0.02171956	      0.00000000	      1.52938497	     -0.00000000
      5.25900000	    -55.55720105	    403.08519911	     20.22982834	      0.19234520	     -0.00000000	     -0.09201327	      0.00000000	      0.11050098	     -0.00000000	     41.21866953	    323.60625464	     -8.83649792	     -0.25353328	      0.00000000	     -0.02188358	      0.00000000	      1.52946542	     -0.00000000
      5.26000000	    -55.54548641	    403.07618358	     20.21471807	      0.19230777	     -0.00000000	     -0.09203247	      0.00000000	      0.10830537	     -0.00000000	     41.21543447	    323.69288671	     -8.76395368	     -0.25350870	      0.00000000	     -0.02204571	      0.00000000	      1.52974198	     -0.00000000
      5.26100000	    -55.53199276	    403.05737357	     20.19694445	      0.19227130	     -0.00000000	     -0.09204946	      0.00000000	      0.10631400	     -0.00000000	     41.21317269	    323.76992401	     -8.69150422	     -0.25348550	      0.00000000	     -0.02220584	      0.00000000	      1.53019763	     -0.00000000
